<svg width="242" height="52" viewBox="0 0 242 52" fill="none" xmlns="http://www.w3.org/2000/svg">
<path d="M69.675 20.6C68.925 20.6 68.3083 20.3833 67.825 19.95C67.3583 19.5 67.125 18.95 67.125 18.3C67.125 17.6333 67.3583 17.0833 67.825 16.65C68.3083 16.2 68.925 15.975 69.675 15.975C70.4083 15.975 71.0083 16.2 71.475 16.65C71.9583 17.0833 72.2 17.6333 72.2 18.3C72.2 18.95 71.9583 19.5 71.475 19.95C71.0083 20.3833 70.4083 20.6 69.675 20.6ZM71.825 37.8C71.825 39.5167 71.3917 40.75 70.525 41.5C69.6583 42.2667 68.45 42.65 66.9 42.65H65.225V39.025H66.25C66.7167 39.025 67.05 38.9333 67.25 38.75C67.45 38.5667 67.55 38.2667 67.55 37.85V22.05H71.825V37.8ZM83.7486 36.2C82.382 36.2 81.1486 35.9083 80.0486 35.325C78.9653 34.7417 78.107 33.9083 77.4736 32.825C76.857 31.7417 76.5486 30.475 76.5486 29.025C76.5486 27.5917 76.8653 26.3333 77.4986 25.25C78.132 24.15 78.9986 23.3083 80.0986 22.725C81.1986 22.1417 82.432 21.85 83.7986 21.85C85.1653 21.85 86.3986 22.1417 87.4986 22.725C88.5986 23.3083 89.4653 24.15 90.0986 25.25C90.732 26.3333 91.0486 27.5917 91.0486 29.025C91.0486 30.4583 90.7236 31.725 90.0736 32.825C89.4403 33.9083 88.5653 34.7417 87.4486 35.325C86.3486 35.9083 85.1153 36.2 83.7486 36.2ZM83.7486 32.5C84.5653 32.5 85.257 32.2 85.8236 31.6C86.407 31 86.6986 30.1417 86.6986 29.025C86.6986 27.9083 86.4153 27.05 85.8486 26.45C85.2986 25.85 84.6153 25.55 83.7986 25.55C82.9653 25.55 82.2736 25.85 81.7236 26.45C81.1736 27.0333 80.8986 27.8917 80.8986 29.025C80.8986 30.1417 81.1653 31 81.6986 31.6C82.2486 32.2 82.932 32.5 83.7486 32.5ZM100.092 24.025C100.492 23.375 101.067 22.85 101.817 22.45C102.567 22.05 103.425 21.85 104.392 21.85C105.542 21.85 106.583 22.1417 107.517 22.725C108.45 23.3083 109.183 24.1417 109.717 25.225C110.267 26.3083 110.542 27.5667 110.542 29C110.542 30.4333 110.267 31.7 109.717 32.8C109.183 33.8833 108.45 34.725 107.517 35.325C106.583 35.9083 105.542 36.2 104.392 36.2C103.408 36.2 102.55 36.0083 101.817 35.625C101.083 35.225 100.508 34.7 100.092 34.05V36H95.8166V17.5H100.092V24.025ZM106.192 29C106.192 27.9333 105.892 27.1 105.292 26.5C104.708 25.8833 103.983 25.575 103.117 25.575C102.267 25.575 101.542 25.8833 100.942 26.5C100.358 27.1167 100.067 27.9583 100.067 29.025C100.067 30.0917 100.358 30.9333 100.942 31.55C101.542 32.1667 102.267 32.475 103.117 32.475C103.967 32.475 104.692 32.1667 105.292 31.55C105.892 30.9167 106.192 30.0667 106.192 29ZM123.059 32.375V36H120.884C119.334 36 118.126 35.625 117.259 34.875C116.393 34.1083 115.959 32.8667 115.959 31.15V25.6H114.259V22.05H115.959V18.65H120.234V22.05H123.034V25.6H120.234V31.2C120.234 31.6167 120.334 31.9167 120.534 32.1C120.734 32.2833 121.068 32.375 121.534 32.375H123.059ZM132.216 24.375C132.716 23.6083 133.341 23.0083 134.091 22.575C134.841 22.125 135.674 21.9 136.591 21.9V26.425H135.416C134.349 26.425 133.549 26.6583 133.016 27.125C132.482 27.575 132.216 28.375 132.216 29.525V36H127.941V22.05H132.216V24.375ZM140.284 29C140.284 27.5667 140.551 26.3083 141.084 25.225C141.634 24.1417 142.376 23.3083 143.309 22.725C144.242 22.1417 145.284 21.85 146.434 21.85C147.417 21.85 148.276 22.05 149.009 22.45C149.759 22.85 150.334 23.375 150.734 24.025V22.05H155.009V36H150.734V34.025C150.317 34.675 149.734 35.2 148.984 35.6C148.251 36 147.392 36.2 146.409 36.2C145.276 36.2 144.242 35.9083 143.309 35.325C142.376 34.725 141.634 33.8833 141.084 32.8C140.551 31.7 140.284 30.4333 140.284 29ZM150.734 29.025C150.734 27.9583 150.434 27.1167 149.834 26.5C149.251 25.8833 148.534 25.575 147.684 25.575C146.834 25.575 146.109 25.8833 145.509 26.5C144.926 27.1 144.634 27.9333 144.634 29C144.634 30.0667 144.926 30.9167 145.509 31.55C146.109 32.1667 146.834 32.475 147.684 32.475C148.534 32.475 149.251 32.1667 149.834 31.55C150.434 30.9333 150.734 30.0917 150.734 29.025ZM159.752 29.025C159.752 27.575 160.043 26.3083 160.627 25.225C161.227 24.1417 162.052 23.3083 163.102 22.725C164.168 22.1417 165.385 21.85 166.752 21.85C168.502 21.85 169.96 22.3083 171.127 23.225C172.31 24.1417 173.085 25.4333 173.452 27.1H168.902C168.518 26.0333 167.777 25.5 166.677 25.5C165.893 25.5 165.268 25.8083 164.802 26.425C164.335 27.025 164.102 27.8917 164.102 29.025C164.102 30.1583 164.335 31.0333 164.802 31.65C165.268 32.25 165.893 32.55 166.677 32.55C167.777 32.55 168.518 32.0167 168.902 30.95H173.452C173.085 32.5833 172.31 33.8667 171.127 34.8C169.943 35.7333 168.485 36.2 166.752 36.2C165.385 36.2 164.168 35.9083 163.102 35.325C162.052 34.7417 161.227 33.9083 160.627 32.825C160.043 31.7417 159.752 30.475 159.752 29.025ZM186.763 36L182.513 30.15V36H178.238V17.5H182.513V27.725L186.738 22.05H192.013L186.213 29.05L192.063 36H186.763ZM209.343 28.8C209.343 29.2 209.318 29.6167 209.268 30.05H199.593C199.659 30.9167 199.934 31.5833 200.418 32.05C200.918 32.5 201.526 32.725 202.243 32.725C203.309 32.725 204.051 32.275 204.468 31.375H209.018C208.784 32.2917 208.359 33.1167 207.743 33.85C207.143 34.5833 206.384 35.1583 205.468 35.575C204.551 35.9917 203.526 36.2 202.393 36.2C201.026 36.2 199.809 35.9083 198.743 35.325C197.676 34.7417 196.843 33.9083 196.243 32.825C195.643 31.7417 195.343 30.475 195.343 29.025C195.343 27.575 195.634 26.3083 196.218 25.225C196.818 24.1417 197.651 23.3083 198.718 22.725C199.784 22.1417 201.009 21.85 202.393 21.85C203.743 21.85 204.943 22.1333 205.993 22.7C207.043 23.2667 207.859 24.075 208.443 25.125C209.043 26.175 209.343 27.4 209.343 28.8ZM204.968 27.675C204.968 26.9417 204.718 26.3583 204.218 25.925C203.718 25.4917 203.093 25.275 202.343 25.275C201.626 25.275 201.018 25.4833 200.518 25.9C200.034 26.3167 199.734 26.9083 199.618 27.675H204.968ZM218.373 24.375C218.873 23.6083 219.498 23.0083 220.248 22.575C220.998 22.125 221.831 21.9 222.748 21.9V26.425H221.573C220.506 26.425 219.706 26.6583 219.173 27.125C218.64 27.575 218.373 28.375 218.373 29.525V36H214.098V22.05H218.373V24.375ZM229.291 36.2C228.541 36.2 227.925 35.9833 227.441 35.55C226.975 35.1 226.741 34.55 226.741 33.9C226.741 33.2333 226.975 32.675 227.441 32.225C227.925 31.775 228.541 31.55 229.291 31.55C230.025 31.55 230.625 31.775 231.091 32.225C231.575 32.675 231.816 33.2333 231.816 33.9C231.816 34.55 231.575 35.1 231.091 35.55C230.625 35.9833 230.025 36.2 229.291 36.2Z" fill="#E11D48"/>
<rect y="2" width="50" height="50" rx="10" fill="#E11D48"/>
<path d="M17.5 15.8672H23.1445V38.2695C23.1445 39.832 22.8581 41.1536 22.2852 42.2344C21.7122 43.3151 20.8854 44.1354 19.8047 44.6953C18.724 45.2552 17.4154 45.5352 15.8789 45.5352C15.3971 45.5352 14.9284 45.5091 14.4727 45.457C14.0039 45.4049 13.5221 45.3203 13.0273 45.2031L13.0469 40.8867C13.3594 40.9388 13.6654 40.9779 13.9648 41.0039C14.2513 41.043 14.5443 41.0625 14.8438 41.0625C15.4297 41.0625 15.918 40.9648 16.3086 40.7695C16.6992 40.5742 16.9922 40.2682 17.1875 39.8516C17.3958 39.4479 17.5 38.9206 17.5 38.2695V15.8672ZM17.0508 10.3594C17.0508 9.53906 17.3372 8.86198 17.9102 8.32812C18.4961 7.79427 19.2643 7.52734 20.2148 7.52734C21.1784 7.52734 21.9466 7.79427 22.5195 8.32812C23.0924 8.86198 23.3789 9.53906 23.3789 10.3594C23.3789 11.1797 23.0924 11.8568 22.5195 12.3906C21.9466 12.9245 21.1784 13.1914 20.2148 13.1914C19.2643 13.1914 18.4961 12.9245 17.9102 12.3906C17.3372 11.8568 17.0508 11.1797 17.0508 10.3594ZM37.9688 15.8672V19.8516H25.6641V15.8672H37.9688ZM28.7109 10.6523H34.3359V30.6328C34.3359 31.2448 34.4141 31.7135 34.5703 32.0391C34.7396 32.3646 34.987 32.5924 35.3125 32.7227C35.638 32.8398 36.0482 32.8984 36.543 32.8984C36.8945 32.8984 37.207 32.8854 37.4805 32.8594C37.7669 32.8203 38.0078 32.7812 38.2031 32.7422L38.2227 36.8828C37.7409 37.0391 37.2201 37.1628 36.6602 37.2539C36.1003 37.3451 35.4818 37.3906 34.8047 37.3906C33.5677 37.3906 32.487 37.1888 31.5625 36.7852C30.651 36.3685 29.9479 35.7044 29.4531 34.793C28.9583 33.8815 28.7109 32.6836 28.7109 31.1992V10.6523Z" fill="white"/>
</svg>
